<svg xmlns="http://www.w3.org/2000/svg" xmlns:xlink="http://www.w3.org/1999/xlink" width="429.0003356933594" height="204" viewBox="0 0 429.0003356933594 204" fill="none">
<rect x="0" y="0" width="0" height="0" fill="rgba(249, 249, 249, 1)" />
<path d="M52.3631 31.5919C52.3631 20.4517 54.5463 9.79939 58.5264 0C24.2835 12.6586 0 44.4027 0 81.5647C0 129.853 41.0032 169 91.5817 169C130.492 169 163.733 145.832 177 113.157C166.746 116.947 155.599 119.027 143.943 119.027C93.3663 119.027 52.3631 79.8823 52.3631 31.5919Z"   fill="#FFD500" >
</path>
<g >
<path     fill="#000000"  d="M220.88 59.44C220.76 64.12 218.48 69.04 216.44 71.08C215.36 72.1 214.76 73.48 215.48 74.56C216.38 75.82 218.6 75.16 219.8 73.72C221.66 71.56 223.4 66.4 221.9 59.5L220.88 59.44ZM207.98 65.98L216.5 65.98C217.28 65.98 217.88 65.68 218 65.02C216.26 63.28 213.38 60.94 213.38 60.94L210.86 64.24L207.98 64.24L207.98 53.32C210.5 52.54 212.84 51.7 214.64 50.92C216.08 51.4 217.16 51.34 217.7 50.8L212.66 46.84C208.7 49.72 200.48 53.44 193.52 55.36L193.82 56.38C197.24 55.9 200.84 55.18 204.14 54.34L204.14 64.24L193.64 64.24L194.12 65.98L203.36 65.98C201.38 74.38 197.72 83.02 192.68 89.44L193.52 90.22C197.9 86.08 201.5 81.16 204.14 75.7L204.14 101.62L204.74 101.62C206.6 101.62 207.98 100.66 207.98 100.36L207.98 72.7C210.02 75.1 212.18 78.4 212.78 81.04C216.44 83.74 219.56 76.3 207.98 71.08L207.98 65.98ZM243.74 59.56C241.16 64.84 237.74 70.3 234.74 73.96C233.3 67.06 232.58 58.9 232.28 49.36C233.72 49.18 234.32 48.52 234.44 47.68L228.44 47.02C228.44 71.74 229.64 89.14 210.2 100.84L210.98 101.92C227.18 93.64 230.96 81.94 231.92 66.82C233.3 82.72 236.78 94.48 245.48 101.68C246.08 99.46 247.4 98.38 249.38 98.08L249.5 97.48C241.76 92.26 237.5 85.12 235.1 75.46C239.12 72.52 243.44 68.02 246.86 63.34C248.12 63.58 248.96 63.16 249.26 62.56L243.74 59.56ZM269.48 78.7C269.84 75.88 269.96 73 269.96 70.12L269.96 66.64L293.48 66.64L293.48 78.7L269.48 78.7ZM293.48 53.2L293.48 64.84L269.96 64.84L269.96 53.2L293.48 53.2ZM294.98 48.88L292.94 51.4L270.74 51.4L266.06 49.48L266.06 70.18C266.06 82.36 264.2 92.86 253.88 100.96L254.66 101.74C264.26 96.16 267.92 88.54 269.24 80.38L293.48 80.38L293.48 95.26C293.48 96.28 293.24 96.7 291.92 96.7C290.42 96.7 283.16 96.16 283.16 96.16L283.16 97.12C286.28 97.54 288.08 98.08 289.1 98.74C290 99.34 290.42 100.42 290.66 101.68C296.78 101.08 297.5 98.98 297.5 95.74L297.5 53.98C298.7 53.8 299.66 53.26 300.08 52.78L294.98 48.88ZM331.1 96.34L331.1 88.84L351.08 88.84L351.08 96.34L331.1 96.34ZM331.1 79.78L351.08 79.78L351.08 87.04L331.1 87.04L331.1 79.78ZM349.7 71.56C350.48 73.12 351.44 74.68 352.52 76.12L350.66 78.04L331.82 78.04L328.88 76.78C330.38 75.16 331.76 73.36 332.96 71.56L349.7 71.56ZM366.98 71.56C367.76 71.56 368.36 71.26 368.54 70.6C366.5 68.68 363.08 66.1 363.08 66.1L360.2 69.76L334.04 69.76C335.3 67.72 336.38 65.56 337.34 63.4L361.28 63.4C362.12 63.4 362.6 63.1 362.78 62.44C360.92 60.64 357.74 58.24 357.74 58.24L354.98 61.6L338.06 61.6C338.78 59.62 339.44 57.64 339.98 55.54L364.4 55.54C365.3 55.54 365.9 55.24 366.08 54.58C363.98 52.66 360.74 50.2 360.74 50.2L357.86 53.74L340.46 53.74C340.82 52.24 341.18 50.74 341.48 49.24C342.74 49.24 343.58 48.76 343.76 47.86L337.22 46.54C336.86 48.94 336.44 51.4 335.84 53.74L316.82 53.74L317.3 55.54L335.42 55.54C334.88 57.58 334.22 59.56 333.56 61.6L319.64 61.6L320.12 63.4L332.9 63.4C332 65.56 330.98 67.72 329.84 69.76L313.88 69.76L314.36 71.56L328.88 71.56C325.1 77.56 320.06 82.96 313.22 86.98L313.82 87.64C319.16 85.24 323.54 82.18 327.08 78.7L327.08 101.56L327.8 101.56C329.72 101.56 331.1 100.54 331.1 100.18L331.1 98.08L351.08 98.08L351.08 101.38L351.74 101.38C353.06 101.38 355.04 100.48 355.1 100L355.1 80.08C355.4 80.02 355.64 79.96 355.88 79.84C358.7 82.54 362.06 84.76 365.6 86.14C366.02 84.58 367.4 83.62 369.2 83.08L369.32 82.36C362.72 80.8 355.16 76.96 351.44 71.56L366.98 71.56ZM388.4 60.82C391.58 64.54 395.36 69.34 398.72 74.32C394.46 82.24 389.36 89.02 384.2 93.82L385.04 94.54C390.86 90.28 396.26 84.46 400.76 77.44C403.7 82 406.1 86.5 407.18 90.22C411.2 93.22 412.88 86.26 402.92 73.84C405.38 69.64 407.48 65.08 409.28 60.16C410.66 60.34 411.44 59.8 411.68 59.14L405.92 57.1C404.42 61.9 402.56 66.58 400.46 70.96C397.52 67.72 393.92 64.12 389.36 60.34L388.4 60.82ZM428.54 87.4L427.82 87.34C427.28 89.68 426.68 91.96 425.96 94.06C425.66 94.9 425.42 95.08 424.7 94.48C418.22 89.5 417.74 67.96 418.46 53.14C419.84 52.9 420.68 52.48 421.04 52L416.12 47.74L413.66 50.38L385.7 50.38L381.08 48.34L381.08 71.74C381.08 82.96 380.18 93.4 373.22 101.38L374.06 101.98C384.08 94.18 384.98 82.54 384.98 71.68L384.98 52.12L414.26 52.12C414.08 71.62 414.38 92.68 422.78 99.34C424.94 101.26 427.22 102.4 428.66 101.02C429.32 100.36 429.02 98.98 427.76 97L428.54 87.4Z">
</path>
</g>
</svg>
